HIERARCHY
ROOT root
{
	OFFSET	0	13.1	24.9
	CHANNELS 6  Xposition Yposition Zposition Xrotation Yrotation Zrotation
	JOINT spine_1
	{
		OFFSET	0	9.99999	0
		CHANNELS 3  Xrotation Yrotation Zrotation
		JOINT spine_2
		{
			OFFSET	0	112	-10
			CHANNELS 3  Xrotation Yrotation Zrotation
			JOINT spine_3
			{
				OFFSET	0	206.5	19.3
				CHANNELS 3  Xrotation Yrotation Zrotation
				JOINT spine_4
				{
					OFFSET	0	110.4	14.6
					CHANNELS 3  Xrotation Yrotation Zrotation
					JOINT neck_1
					{
						OFFSET	0	71.8	-50.3
						CHANNELS 3  Xrotation Yrotation Zrotation
						JOINT neck_2
						{
							OFFSET	0	86.2	-25.8
							CHANNELS 3  Xrotation Yrotation Zrotation
							JOINT head_ee
							{
								OFFSET	0	179.8	-8.7
								CHANNELS 3  Xrotation Yrotation Zrotation
								End Site
								{
									OFFSET	1	0	0
								}
							}
						}
					}
					JOINT left_clavicle
					{
						OFFSET	-43.2	22.4	-70.8
						CHANNELS 3  Xrotation Yrotation Zrotation
						JOINT left_shoulder
						{
							OFFSET	-93.9	-5.79999	48.7
							CHANNELS 3  Xrotation Yrotation Zrotation
							JOINT left_elbow
							{
								OFFSET	-291.4	-30.8	15.2
								CHANNELS 3  Xrotation Yrotation Zrotation
								JOINT left_lowarm_twist
								{
									OFFSET	-110.7	-3.89999	13.6
									CHANNELS 3  Xrotation Yrotation Zrotation
									JOINT left_hand
									{
										OFFSET	-110.7	-3.89999	13.6
										CHANNELS 3  Xrotation Yrotation Zrotation
										JOINT left_ee
										{
											OFFSET	-80.8	-5.10001	12.1
											CHANNELS 3  Xrotation Yrotation Zrotation
											End Site
											{
												OFFSET	1	0	0
											}
										}
									}
								}
							}
						}
					}
					JOINT right_clavicle
					{
						OFFSET	43.2	22.4	-70.8
						CHANNELS 3  Xrotation Yrotation Zrotation
						JOINT right_shoulder
						{
							OFFSET	93.9	-5.79999	48.7
							CHANNELS 3  Xrotation Yrotation Zrotation
							JOINT right_elbow
							{
								OFFSET	291.4	-30.8	15.2
								CHANNELS 3  Xrotation Yrotation Zrotation
								JOINT right_lowarm_twist
								{
									OFFSET	110.7	-3.89999	13.6
									CHANNELS 3  Xrotation Yrotation Zrotation
									JOINT right_hand
									{
										OFFSET	110.7	-3.89999	13.6
										CHANNELS 3  Xrotation Yrotation Zrotation
										JOINT right_ee
										{
											OFFSET	80.8	-5.10001	12.1
											CHANNELS 3  Xrotation Yrotation Zrotation
											End Site
											{
												OFFSET	1	0	0
											}
										}
									}
								}
							}
						}
					}
				}
			}
		}
	}
	JOINT left_hip
	{
		OFFSET	-82.8	-127.5	0.300001
		CHANNELS 3  Xrotation Yrotation Zrotation
		JOINT left_knee
		{
			OFFSET	-28.2	-396.7	2.2
			CHANNELS 3  Xrotation Yrotation Zrotation
			JOINT left_ankle
			{
				OFFSET	-11.7	-411.3	35.4
				CHANNELS 3  Xrotation Yrotation Zrotation
				JOINT left_toes
				{
					OFFSET	0	-60	-88.6
					CHANNELS 3  Xrotation Yrotation Zrotation
					JOINT left_foot_ee
					{
						OFFSET	-22.5	-16.5	-42.2
						CHANNELS 3  Xrotation Yrotation Zrotation
						End Site
						{
							OFFSET	1	0	0
						}
					}
				}
			}
		}
	}
	JOINT right_hip
	{
		OFFSET	82.8	-127.5	0.300001
		CHANNELS 3  Xrotation Yrotation Zrotation
		JOINT right_knee
		{
			OFFSET	28.2	-396.7	2.2
			CHANNELS 3  Xrotation Yrotation Zrotation
			JOINT right_ankle
			{
				OFFSET	11.7	-411.3	35.4
				CHANNELS 3  Xrotation Yrotation Zrotation
				JOINT right_toes
				{
					OFFSET	0	-60	-88.6
					CHANNELS 3  Xrotation Yrotation Zrotation
					JOINT right_foot_ee
					{
						OFFSET	22.5	-16.5	-42.2
						CHANNELS 3  Xrotation Yrotation Zrotation
						End Site
						{
							OFFSET	1	0	0
						}
					}
				}
			}
		}
	}
}
MOTION
Frames: 8
Frame Time: 0.02
2578.44804455 729.688 -1446.75152699 174.127203934 47.5909276705 174.990764941 -3.14682 0.789522 4.40454 -3.13617 0.507934 4.44574 -3.0816 -0.677387 4.42314 -3.10889 0.0289399 4.47451 3.77913 7.07566 -0.979692 3.98072 13.1029 -0.681233 -0.0 0.0 -0.0 -2.58299 -16.119 -7.44116 -19.7898 -13.2621 65.5308 0.873917 -23.4082 0.181048 -51.236 -4.21732 4.74598 2.27005 4.16312 16.9675 -0.0 0.0 -0.0 11.1998 -0.0846207 -22.1527 -4.66456 0.0861547 -65.2874 1.9613 44.169 -0.795849 9.08607 -0.230421 1.13657 2.03221 5.32366 -11.522 0.0 0.0 0.0 3.3251 5.79747 1.01207 -30.446 0.0267247 4.61769 -3.33366 -26.2698 0.598569 29.9385 -0.0 -0.0 -0.0 0.0 -0.0 2.2776 9.13722 1.4453 0.704441 0.029648 0.104034 8.5933 -28.2264 1.30803 -17.4238 0.0 0.0 0.0 0.0 0.0 
2577.38525553 740.025 -1443.0188777 174.841193865 47.1625253579 174.953447742 -3.23814 0.769321 4.35564 -3.22772 0.490876 4.39566 -3.17502 -0.687846 4.36922 -3.20165 0.0101211 4.42292 3.60186 5.97043 -2.23462 3.80332 12.2749 -2.14507 -0.0 0.0 -0.0 -2.60272 -16.0987 -7.48109 -19.4837 -13.2471 66.1046 0.875009 -23.4343 0.181482 -53.8991 -4.53525 4.87113 1.83699 5.59555 14.5393 -0.0 0.0 -0.0 10.7177 -0.602379 -21.1086 -3.17532 0.196705 -64.5906 2.15509 46.8659 -0.934153 10.6476 -0.251742 1.33489 2.09339 5.14118 -12.0202 0.0 0.0 0.0 1.46386 10.8914 1.65301 -20.0725 0.29477 3.05045 -5.97419 -27.6993 1.09854 27.2209 -0.0 -0.0 -0.0 0.0 -0.0 2.68597 8.88479 1.65506 1.76902 0.0768791 0.260559 10.2259 -28.1495 1.54817 -16.7568 0.0 0.0 0.0 0.0 0.0 
2571.48125605 755.02 -1435.13732749 176.67569445 51.7307784351 174.183369671 -3.48647 0.808714 3.99647 -3.47775 0.552983 4.03973 -3.42513 -0.551217 4.03998 -3.44789 0.0931902 4.07628 2.96587 4.69879 -3.91311 3.18356 11.5218 -4.04801 -0.0 0.0 -0.0 -2.3882 -15.2139 -6.89871 -19.409 -13.0526 69.6763 0.90104 -24.0532 0.191963 -57.7593 -5.00548 5.02597 1.32498 8.00338 12.0035 -0.0 0.0 -0.0 10.0669 -1.48426 -19.7123 -0.779723 0.768853 -63.8404 2.57952 51.9452 -1.25675 11.4899 -0.260996 1.44208 2.40037 4.88483 -14.2532 0.0 0.0 0.0 6.62006 13.9447 2.23987 -6.33685 0.208558 0.949663 -14.7458 -27.5886 2.74307 22.3459 -0.0 -0.0 -0.0 0.0 -0.0 2.88812 8.11335 1.93081 0.465332 0.0194407 0.0687619 14.956 -27.6914 2.22265 -14.8532 0.0 0.0 0.0 0.0 0.0 
2542.65259387 742.179 -1423.39136487 178.664555583 49.6499833649 172.445018829 -3.16235 0.575296 3.71858 -3.15472 0.337677 3.7476 -3.12208 -0.660934 3.70434 -3.14122 -0.0680398 3.76214 2.31131 4.86698 -1.90847 2.43481 10.1395 -1.73644 -0.0 0.0 -0.0 -2.39109 -14.1323 -6.75746 -20.8903 -13.0289 70.4523 0.964637 -25.5405 0.218638 -61.0976 -5.41956 5.13404 1.0313 11.3113 11.3016 -0.0 0.0 -0.0 9.66224 -1.61634 -18.8815 0.157683 1.72119 -63.6326 3.28391 58.4068 -1.83592 11.774 -0.263762 1.47826 3.20933 3.89068 -20.3864 0.0 0.0 0.0 8.29814 13.5952 2.16636 -2.79638 0.104994 0.416268 -17.989 -28.3398 3.38646 19.572 -0.0 -0.0 -0.0 0.0 -0.0 4.22923 6.70343 0.915883 -3.69813 -0.1345 -0.551514 19.7874 -27.8633 2.89068 -12.1444 0.0 0.0 0.0 0.0 0.0 
2491.95185187 751.07 -1405.63761187 177.714977023 49.7605155867 173.585766137 -3.10345 -0.00610219 3.71625 -3.0958 -0.242399 3.70835 -3.10321 -1.21009 3.51398 -3.11987 -0.640327 3.66075 1.35529 5.46123 0.56176 1.42324 9.17092 1.09954 -0.0 0.0 -0.0 -2.34165 -14.6709 -6.72504 -19.9681 -13.8882 70.6029 1.17414 -30.1827 0.316627 -61.5023 -5.47015 5.14549 0.924979 11.2121 10.5749 -0.0 0.0 -0.0 10.1858 -1.09121 -19.9789 -2.12966 0.584786 -64.893 2.75931 53.8013 -1.40012 10.9299 -0.25502 1.3708 3.37886 1.56286 -22.5885 0.0 0.0 0.0 9.11692 13.7255 2.33337 -4.17206 0.149152 0.622771 -18.2594 -29.2626 3.48056 18.7756 -0.0 -0.0 -0.0 0.0 -0.0 2.53655 7.51215 -0.631448 -10.8132 -0.292007 -1.63132 24.8636 -26.5758 3.5245 -10.9295 0.0 0.0 0.0 0.0 0.0 
2487.1527701 755.423 -1414.1598989 178.925195712 51.2929310544 173.297107582 -2.91305 0.0759218 3.71377 -2.90539 -0.160384 3.71109 -2.90751 -1.11944 3.54208 -2.9246 -0.546383 3.6742 1.53616 5.53595 0.836433 1.60278 9.059 1.39666 -0.0 0.0 -0.0 -2.31719 -15.0144 -6.71902 -19.3177 -13.9308 70.3409 1.21898 -31.1243 0.33949 -61.5833 -5.4803 5.14774 0.879865 11.3153 10.3211 -0.0 0.0 -0.0 10.4585 -0.619749 -20.5694 -2.31272 0.575086 -65.1865 2.62291 52.4078 -1.29102 10.8118 -0.25367 1.35578 3.34582 1.1425 -22.521 0.0 0.0 0.0 9.15383 13.5976 2.24799 -4.41371 0.156396 0.65915 -18.3539 -29.3428 3.50254 18.7971 -0.0 -0.0 -0.0 0.0 -0.0 2.13886 7.554 -0.633176 -11.1532 -0.296164 -1.68332 24.708 -26.6141 3.5058 -10.9721 0.0 0.0 0.0 0.0 0.0 
2457.15753048 738.465 -1427.44920064 174.296444613 57.4255813409 176.629555101 -2.81911 1.00475 3.8647 -2.81112 0.756988 3.92068 -2.74745 -0.275033 3.98351 -2.76941 0.357029 3.97701 2.36806 6.21834 2.5946 2.4376 8.6981 3.34979 -0.0 0.0 -0.0 -2.14717 -16.6993 -6.57594 -17.7726 -12.7079 67.2235 1.47824 -36.2122 0.483361 -62.0266 -5.53582 5.15979 0.580178 11.5364 8.47218 -0.0 0.0 -0.0 10.9177 1.74532 -21.6649 -4.15215 -0.952637 -65.0861 1.74042 40.7628 -0.646657 10.1462 -0.245486 1.27115 3.06382 -2.03273 -21.7463 0.0 0.0 0.0 8.68633 12.3723 1.53035 -5.33871 0.182703 0.798668 -19.531 -29.0226 3.71228 18.987 -0.0 -0.0 -0.0 0.0 -0.0 -0.220455 7.75723 -0.899675 -12.3556 -0.308391 -1.86741 23.0476 -27.2913 3.30884 -11.5355 0.0 0.0 0.0 0.0 0.0 
2457.2952092 738.465 -1426.43860919 174.322505324 57.2579498154 176.598600655 -2.81911 1.00475 3.8647 -2.81112 0.756988 3.92068 -2.74745 -0.275033 3.98351 -2.76941 0.357029 3.97701 2.36806 6.21834 2.5946 2.4376 8.6981 3.34979 -0.0 0.0 -0.0 -2.14717 -16.6993 -6.57594 -17.7726 -12.7079 67.2235 1.47824 -36.2122 0.483361 -62.0266 -5.53582 5.15979 0.580178 11.5364 8.47218 -0.0 0.0 -0.0 10.9177 1.74532 -21.6649 -4.15215 -0.952637 -65.0861 1.74042 40.7628 -0.646657 10.1462 -0.245486 1.27115 3.06382 -2.03273 -21.7463 0.0 0.0 0.0 8.68633 12.3723 1.53035 -5.33871 0.182703 0.798668 -19.531 -29.0226 3.71228 18.987 -0.0 -0.0 -0.0 0.0 -0.0 -0.220455 7.75723 -0.899675 -12.3556 -0.308391 -1.86741 23.0476 -27.2913 3.30884 -11.5355 0.0 0.0 0.0 0.0 0.0 
